<svg xmlns="http://www.w3.org/2000/svg" viewBox="0 0 1180 3554" role="img" aria-label="DFD Level 2"><defs><marker id="arrow" markerWidth="12" markerHeight="12" refX="10" refY="6" orient="auto"><path d="M2,2 L10,6 L2,10 z"/></marker></defs><style>.dfd-title{font:700 22px Arial,sans-serif;text-anchor:middle;fill:#172033}.dfd-node rect,.dfd-node ellipse,.dfd-store path{fill:#fff;stroke:#172033;stroke-width:2}.dfd-process ellipse{fill:#f9fcff}.dfd-entity rect{fill:#fff}.dfd-store path{fill:none}.dfd-node text{font:600 13px Arial,sans-serif;text-anchor:middle;dominant-baseline:middle;fill:#172033}.dfd-store text{font-weight:600}.dfd-flow path{fill:none;stroke:#2f3b4f;stroke-width:1.6;shape-rendering:geometricPrecision}.dfd-flow text{font:12px Arial,sans-serif;text-anchor:middle;fill:#2f3b4f;paint-order:stroke;stroke:#fff;stroke-width:5px;stroke-linejoin:round}marker path{fill:#2f3b4f}@media(prefers-color-scheme:dark){.dfd-title,.dfd-node text{fill:#eef3ff}.dfd-node rect,.dfd-node ellipse{fill:#152033;stroke:#d8e1f3}.dfd-process ellipse{fill:#172a42}.dfd-store path{stroke:#d8e1f3}.dfd-flow path{stroke:#c7d2e6}.dfd-flow text{fill:#eef3ff;stroke:#111827}marker path{fill:#c7d2e6}}</style><g transform="translate(0 0)"><text class="dfd-title" x="590" y="38">Level 2 Riwayat Transaksi</text><g class="dfd-flow"><path d="M 575 162 L 575 190" marker-end="url(#arrow)"/><text x="575" y="169">Data Transaksi</text></g><g class="dfd-flow"><path d="M 575 260 L 575 288" marker-end="url(#arrow)"/><text x="575" y="267">Data Transaksi</text></g><g class="dfd-flow"><path d="M 233 135 L 233 131 L 415 131 L 415 127" marker-end="url(#arrow)"/><text x="324" y="124">Data Transaksi</text></g><g class="dfd-node dfd-entity" data-id="external.client"><rect x="58" y="100" width="175" height="70" rx="4"/><text x="145" y="127"><tspan x="145" dy="0">User</tspan></text></g><g class="dfd-node dfd-process" data-id="process.level2.transaction.1"><ellipse cx="575" cy="127" rx="160" ry="35"/><text x="575" y="119"><tspan x="575" dy="0">1.1 Ambil Data Transaksi</tspan></text></g><g class="dfd-node dfd-process" data-id="process.level2.transaction.2"><ellipse cx="575" cy="225" rx="160" ry="35"/><text x="575" y="217"><tspan x="575" dy="-9">1.2 Susun Detail</tspan><tspan x="575" dy="18">Transaksi</tspan></text></g><g class="dfd-node dfd-process" data-id="process.level2.transaction.3"><ellipse cx="575" cy="323" rx="160" ry="35"/><text x="575" y="315"><tspan x="575" dy="-9">1.3 Tampilkan Riwayat</tspan><tspan x="575" dy="18">Transaksi</tspan></text></g></g><g transform="translate(0 596)"><text class="dfd-title" x="590" y="38">Level 2 Manajemen Infusion Reading</text><g class="dfd-flow"><path d="M 575 162 L 575 190" marker-end="url(#arrow)"/><text x="575" y="169">Data Bisnis</text></g><g class="dfd-flow"><path d="M 575 260 L 575 288" marker-end="url(#arrow)"/><text x="575" y="267">Data Bisnis</text></g><g class="dfd-flow"><path d="M 575 358 L 575 386" marker-end="url(#arrow)"/><text x="575" y="365">Data Bisnis</text></g><g class="dfd-flow"><path d="M 233 135 L 233 131 L 415 131 L 415 127" marker-end="url(#arrow)"/><text x="324" y="124">Data Bisnis</text></g><g class="dfd-node dfd-entity" data-id="external.client"><rect x="58" y="100" width="175" height="70" rx="4"/><text x="145" y="127"><tspan x="145" dy="0">User</tspan></text></g><g class="dfd-node dfd-process" data-id="process.level2.infusion-reading.1"><ellipse cx="575" cy="127" rx="160" ry="35"/><text x="575" y="119"><tspan x="575" dy="0">2.1 Ambil Data</tspan></text></g><g class="dfd-node dfd-process" data-id="process.level2.infusion-reading.2"><ellipse cx="575" cy="225" rx="160" ry="35"/><text x="575" y="217"><tspan x="575" dy="0">2.2 Simpan Data</tspan></text></g><g class="dfd-node dfd-process" data-id="process.level2.infusion-reading.3"><ellipse cx="575" cy="323" rx="160" ry="35"/><text x="575" y="315"><tspan x="575" dy="0">2.3 Perbarui Data</tspan></text></g><g class="dfd-node dfd-process" data-id="process.level2.infusion-reading.4"><ellipse cx="575" cy="421" rx="160" ry="35"/><text x="575" y="413"><tspan x="575" dy="0">2.4 Simpan Api</tspan></text></g></g><g transform="translate(0 1234)"><text class="dfd-title" x="590" y="38">Level 2 Manajemen Dashboard Controller  G E T| H E A D dashboard  Patient::with-&gt;latest.paginate  Patient::with.latest  Patient.with patients.get Collection view display.stats  Patient::with-&gt;latest.get display.dashboard Rows patients.total</text><g class="dfd-flow"><path d="M 575 162 L 575 190" marker-end="url(#arrow)"/><text x="575" y="169">Data Bisnis</text></g><g class="dfd-flow"><path d="M 233 135 L 233 131 L 415 131 L 415 127" marker-end="url(#arrow)"/><text x="324" y="124">Data Bisnis</text></g><g class="dfd-node dfd-entity" data-id="external.client"><rect x="58" y="100" width="175" height="70" rx="4"/><text x="145" y="127"><tspan x="145" dy="0">User</tspan></text></g><g class="dfd-node dfd-process" data-id="process.level2.dashboard-controller-g-e-t-h-e-a-d-dashboard-patient-with-latest-paginate-patient-with-latest-patient-with-patients-get-collection-view-display-stats-patient-with-latest-get-display-dashboard-rows-patients-total.1"><ellipse cx="575" cy="127" rx="160" ry="35"/><text x="575" y="119"><tspan x="575" dy="0">3.1 Ambil Data</tspan></text></g><g class="dfd-node dfd-process" data-id="process.level2.dashboard-controller-g-e-t-h-e-a-d-dashboard-patient-with-latest-paginate-patient-with-latest-patient-with-patients-get-collection-view-display-stats-patient-with-latest-get-display-dashboard-rows-patients-total.2"><ellipse cx="575" cy="225" rx="160" ry="35"/><text x="575" y="217"><tspan x="575" dy="0">3.2 Kelola Dashboard</tspan></text></g></g><g transform="translate(0 1830)"><text class="dfd-title" x="590" y="38">Level 2 Manajemen Patient</text><g class="dfd-flow"><path d="M 575 162 L 575 190" marker-end="url(#arrow)"/><text x="575" y="169">Data Bisnis</text></g><g class="dfd-flow"><path d="M 735 225 L 735 177 L 890 177 L 890 129" marker-end="url(#arrow)"/><text x="812" y="170">Data Bisnis</text></g><g class="dfd-flow"><path d="M 575 260 L 575 288" marker-end="url(#arrow)"/><text x="575" y="267">Data Bisnis</text></g><g class="dfd-flow"><path d="M 233 135 L 233 131 L 415 131 L 415 127" marker-end="url(#arrow)"/><text x="324" y="124">Data Bisnis</text></g><g class="dfd-flow"><path d="M 575 358 L 575 386" marker-end="url(#arrow)"/><text x="575" y="365">Data Bisnis</text></g><g class="dfd-flow"><path d="M 575 456 L 575 484" marker-end="url(#arrow)"/><text x="575" y="463">Data Bisnis</text></g><g class="dfd-flow"><path d="M 735 519 L 735 324 L 890 324 L 890 129" marker-end="url(#arrow)"/><text x="812" y="317">Data Bisnis</text></g><g class="dfd-flow"><path d="M 575 554 L 575 582" marker-end="url(#arrow)"/><text x="575" y="561">Data Bisnis</text></g><g class="dfd-flow"><path d="M 735 617 L 735 373 L 890 373 L 890 129" marker-end="url(#arrow)"/><text x="812" y="366">Data Bisnis</text></g><g class="dfd-flow"><path d="M 575 652 L 575 680" marker-end="url(#arrow)"/><text x="575" y="659">Data Bisnis</text></g><g class="dfd-flow"><path d="M 575 750 L 575 778" marker-end="url(#arrow)"/><text x="575" y="757">Data Bisnis</text></g><g class="dfd-flow"><path d="M 735 813 L 735 471 L 890 471 L 890 129" marker-end="url(#arrow)"/><text x="812" y="464">Data Bisnis</text></g><g class="dfd-flow"><path d="M 575 848 L 575 876" marker-end="url(#arrow)"/><text x="575" y="855">Data Bisnis</text></g><g class="dfd-node dfd-entity" data-id="external.client"><rect x="58" y="100" width="175" height="70" rx="4"/><text x="145" y="127"><tspan x="145" dy="0">User</tspan></text></g><g class="dfd-node dfd-process" data-id="process.level2.patient.1"><ellipse cx="575" cy="127" rx="160" ry="35"/><text x="575" y="119"><tspan x="575" dy="0">4.1 Validasi Data</tspan></text></g><g class="dfd-node dfd-process" data-id="process.level2.patient.2"><ellipse cx="575" cy="225" rx="160" ry="35"/><text x="575" y="217"><tspan x="575" dy="0">4.2 Simpan Data</tspan></text></g><g class="dfd-node dfd-process" data-id="process.level2.patient.3"><ellipse cx="575" cy="323" rx="160" ry="35"/><text x="575" y="315"><tspan x="575" dy="0">4.3 Buka Form Patient</tspan></text></g><g class="dfd-node dfd-process" data-id="process.level2.patient.4"><ellipse cx="575" cy="421" rx="160" ry="35"/><text x="575" y="413"><tspan x="575" dy="0">4.4 Validasi Data</tspan></text></g><g class="dfd-node dfd-process" data-id="process.level2.patient.5"><ellipse cx="575" cy="519" rx="160" ry="35"/><text x="575" y="511"><tspan x="575" dy="0">4.5 Simpan Data</tspan></text></g><g class="dfd-node dfd-process" data-id="process.level2.patient.6"><ellipse cx="575" cy="617" rx="160" ry="35"/><text x="575" y="609"><tspan x="575" dy="0">4.6 Simpan Patient</tspan></text></g><g class="dfd-node dfd-process" data-id="process.level2.patient.7"><ellipse cx="575" cy="715" rx="160" ry="35"/><text x="575" y="707"><tspan x="575" dy="0">4.7 Validasi Data</tspan></text></g><g class="dfd-node dfd-process" data-id="process.level2.patient.8"><ellipse cx="575" cy="813" rx="160" ry="35"/><text x="575" y="805"><tspan x="575" dy="0">4.8 Simpan Data</tspan></text></g><g class="dfd-node dfd-process" data-id="process.level2.patient.9"><ellipse cx="575" cy="911" rx="160" ry="35"/><text x="575" y="903"><tspan x="575" dy="0">4.9 Lihat Detail Patient</tspan></text></g><g class="dfd-node dfd-store" data-id="store.patient"><path d="M 890 100 L 1120 100 M 890 158 L 1120 158 M 904 100 L 904 158"/><text x="1012" y="121"><tspan x="1012" dy="0">D1 Patients</tspan></text></g></g><g transform="translate(0 2958)"><text class="dfd-title" x="590" y="38">Level 2 Manajemen Monitoring Controller  G E T| H E A D monitoring  Patient::with-&gt;latest.get  Patient::with.latest  Patient.with view display.monitoring Cards display.stats</text><g class="dfd-flow"><path d="M 575 162 L 575 190" marker-end="url(#arrow)"/><text x="575" y="169">Data Bisnis</text></g><g class="dfd-flow"><path d="M 233 135 L 233 131 L 415 131 L 415 127" marker-end="url(#arrow)"/><text x="324" y="124">Data Bisnis</text></g><g class="dfd-node dfd-entity" data-id="external.client"><rect x="58" y="100" width="175" height="70" rx="4"/><text x="145" y="127"><tspan x="145" dy="0">User</tspan></text></g><g class="dfd-node dfd-process" data-id="process.level2.monitoring-controller-g-e-t-h-e-a-d-monitoring-patient-with-latest-get-patient-with-latest-patient-with-view-display-monitoring-cards-display-stats.1"><ellipse cx="575" cy="127" rx="160" ry="35"/><text x="575" y="119"><tspan x="575" dy="0">5.1 Ambil Data</tspan></text></g><g class="dfd-node dfd-process" data-id="process.level2.monitoring-controller-g-e-t-h-e-a-d-monitoring-patient-with-latest-get-patient-with-latest-patient-with-view-display-monitoring-cards-display-stats.2"><ellipse cx="575" cy="225" rx="160" ry="35"/><text x="575" y="217"><tspan x="575" dy="0">5.2 Kelola Monitoring</tspan></text></g></g></svg>